<svg xmlns="http://www.w3.org/2000/svg" version="1.1" xmlns:xlink="http://www.w3.org/1999/xlink" viewBox="0 0 700 700" style="overflow: hidden; display: block;" width="700" height="700"><defs><linearGradient id="two-209" x1="350" y1="-350" x2="350" y2="350" spreadMethod="pad" gradientUnits="userSpaceOnUse"><stop offset="0%" stop-color="hsl(50, 98%, 80%)" stop-opacity="1"></stop><stop offset="100%" stop-color="hsl(50, 98%, 60%)" stop-opacity="1"></stop></linearGradient></defs><g id="two-0" transform="matrix(1 0 0 1 0 0)" opacity="1"><path transform="matrix(1 0 0 1 350 350)" id="two-235" d="M 136.501035 56.54058 C 113.813783 107.981636 249.025244 169.535154 210.162385 210.162385 C 173.097097 248.910437 114.294034 146.221166 60.67332 146.478354 C 38.819901 146.583172 18.606426 161.554093 0 173.016372 C -39.814935 197.543913 -64.049722 250.947457 -109.116418 263.430334 C -152.185048 275.359774 -222.270378 282.586887 -242.989943 242.989942 C -273.399764 184.87405 -130.586669 125.0862 -155.621178 64.460402 C -180.497295 4.218179 -345.129739 65.115239 -342.30977 0 C -339.171964 -72.454353 -167.650697 7.964416 -129.156457 -53.498356 C -112.046081 -80.818057 -166.975831 -122.281624 -149.120106 -149.120106 C -134.062559 -171.752721 -94.907067 -159.469137 -68.240432 -164.746975 C -45.70063 -169.208034 -21.760507 -185.952177 -0.000001 -178.574907 C 23.846276 -170.490517 26.281433 -129.092295 50.147958 -121.067883 C 78.751439 -111.450809 109.805168 -143.943861 139.67924 -139.679241 C 171.687773 -135.10992 200.000707 -112.646722 226.196137 -93.693509 C 262.399401 -67.499314 334.39067 -43.451217 323.95976 -0.000001 C 308.877027 62.82895 162.57478 -2.579008 136.501035 56.54058 Z " fill="url(#two-209)" stroke="undefined" stroke-width="1" stroke-opacity="1" fill-opacity="1" visibility="visible" stroke-linecap="butt" stroke-linejoin="miter" stroke-miterlimit="4"></path></g></svg>